PathFileType	4	(X/Y/Z)	./resultDataOpenSim/trcMotMarkerGrf/sub06/qtm-04-01.trc
DataRate	CameraRate	NumFrames	NumMarkers	Units	OrigDataRate	OrigDataStartFrame	OrigNumFrames
250.000000	250.000000	13	24	m	250.000000	65	513
Frame#	Time	L.Toe.Tip			R.Toe.Tip			L.Ankle.Lat			R.Ankle.Lat			L.Ankle.Med			R.Ankle.Med			L.Heel			R.Heel			L.Knee.Lat			R.Knee.Lat			L.Knee.Med			R.Knee.Med			L.Thigh.Upper			R.Thigh.Upper			L.ASIS			R.ASIS			V.Sacral			L.Acromium			R.Acromium			C7			L.Elbow			R.Elbow			L.Wrist.Lat			R.Wrist.Lat
		X1	Y1	Z1	X2	Y2	Z2	X3	Y3	Z3	X4	Y4	Z4	X5	Y5	Z5	X6	Y6	Z6	X7	Y7	Z7	X8	Y8	Z8	X9	Y9	Z9	X10	Y10	Z10	X11	Y11	Z11	X12	Y12	Z12	X13	Y13	Z13	X14	Y14	Z14	X15	Y15	Z15	X16	Y16	Z16	X17	Y17	Z17	X18	Y18	Z18	X19	Y19	Z19	X20	Y20	Z20	X21	Y21	Z21	X22	Y22	Z22	X23	Y23	Z23	X24	Y24	Z24

65	0.256	-1.311252	0.079629348	-0.07248752	-0.86059297	0.035700583	0.089917958	-1.324297	0.20827944	-0.1020262	-0.99600889	0.060639245	0.1121101	-1.3057839	0.21509542	-0.021168284	-0.97619721	0.083484801	0.027167337	-1.3778365	0.2606503	-0.055082632	-1.0500479	0.039769266	0.048789822	-1.000473	0.39516568	-0.13305344	-0.92925096	0.44352775	0.15159564	-0.99427586	0.3820259	-0.011361499	-0.96140556	0.4346575	0.026930605	-1.0713346	0.78647386	-0.13214724	-1.0422145	0.80242826	0.21099277	-0.99261917	0.83342414	-0.096069539	-0.9579137	0.84996035	0.14795028	-1.1578302	0.92561769	0.051714347	-1.0130139	1.3293289	-0.1393235	-1.0026727	1.304956	0.22222819	-1.0814984	1.361552	0.045197602	-1.0748322	1.0169397	-0.20304782	-1.1141883	1.0098978	0.2820621	-0.91681754	0.82487477	-0.21248229	-1.0018473	0.79917738	0.32935913
66	0.26	-1.2925874	0.078558291	-0.072469333	-0.86068775	0.03571329	0.089955592	-1.3088048	0.20671939	-0.10142655	-0.99606237	0.060661708	0.11221157	-1.2905447	0.21375618	-0.020547934	-0.97631895	0.083666443	0.027294616	-1.3634639	0.25773244	-0.053920055	-1.0501457	0.039875606	0.04885711	-0.98778075	0.39817204	-0.132595	-0.92786001	0.44361704	0.15195486	-0.98045658	0.38542409	-0.010707939	-0.96036189	0.43488003	0.027062701	-1.0646563	0.78860401	-0.13170735	-1.0370547	0.80366998	0.21167343	-0.98631258	0.83555577	-0.09551447	-0.95161187	0.8517132	0.14928579	-1.1524495	0.92747284	0.052322169	-1.0074397	1.3313905	-0.1390033	-0.99642146	1.3070179	0.22232456	-1.0755578	1.363336	0.045586398	-1.0704391	1.0194334	-0.20278308	-1.1067104	1.0113933	0.28277324	-0.91327919	0.82660638	-0.21264574	-0.99075311	0.80217046	0.32948298
67	0.264	-1.2737114	0.077393881	-0.072403346	-0.8607874	0.035728607	0.089980899	-1.2932765	0.20497034	-0.10081372	-0.99608292	0.060709871	0.11230943	-1.2751109	0.21223198	-0.01992769	-0.97647307	0.083853498	0.027376002	-1.3490643	0.25452086	-0.052825506	-1.0502581	0.039966622	0.048926479	-0.97521251	0.40124466	-0.1320899	-0.92645351	0.4437364	0.15227813	-0.96688216	0.38892512	-0.010020141	-0.95942778	0.43508646	0.027190722	-1.0579136	0.7906858	-0.13134169	-1.031983	0.80494075	0.21233004	-0.97996619	0.83767201	-0.094923294	-0.94593474	0.85341765	0.15043951	-1.1468644	0.92919281	0.052708153	-1.0018524	1.3334126	-0.13868277	-0.99018072	1.3090515	0.22241745	-1.069629	1.3650821	0.04595568	-1.0660654	1.0218883	-0.2025332	-1.0992769	1.0129088	0.28335386	-0.90975675	0.8283194	-0.21282378	-0.97966972	0.80524441	0.32957378
68	0.268	-1.254523	0.076166485	-0.072430369	-0.86088952	0.035749062	0.090003889	-1.2777172	0.20303782	-0.10015471	-0.9961431	0.060746779	0.11238453	-1.2596128	0.21051765	-0.019275794	-0.97663959	0.084034524	0.027428733	-1.33465	0.25099569	-0.051859332	-1.0503859	0.040019738	0.04901057	-0.96276725	0.40437401	-0.13155466	-0.92531442	0.44381113	0.15246792	-0.95392045	0.39242044	-0.0093998513	-0.95842931	0.43530602	0.027363706	-1.051046	0.79269992	-0.13114848	-1.0272295	0.80617993	0.21277788	-0.97353119	0.83977489	-0.094268498	-0.94079691	0.85503763	0.15137507	-1.1411563	0.93080152	0.052954334	-0.99624881	1.3353882	-0.13836433	-0.98395238	1.3110488	0.22250868	-1.0637159	1.366777	0.046301973	-1.0617045	1.0243014	-0.20229139	-1.0918458	1.0143921	0.2839501	-0.90624839	0.83000858	-0.21301575	-0.9685991	0.80836417	0.32962415
69	0.272	-1.2349777	0.074914	-0.072615899	-0.86098853	0.035774249	0.090031417	-1.262116	0.20092505	-0.099442233	-0.99642062	0.06067361	0.11239665	-1.2441135	0.20861354	-0.01860013	-0.97679299	0.084200194	0.027478278	-1.3201916	0.24714432	-0.050986158	-1.0505265	0.040029455	0.049109576	-0.95042351	0.40755138	-0.13098961	-0.92449164	0.44381775	0.15254176	-0.94163218	0.39588135	-0.0088725757	-0.95740469	0.43553873	0.02756822	-1.0440346	0.79464606	-0.13114023	-1.0225452	0.80734957	0.21306039	-0.96696944	0.84186788	-0.093533687	-0.93606628	0.85655296	0.15212378	-1.1353996	0.93233863	0.053154866	-0.99063135	1.3373133	-0.13804995	-0.97774146	1.3130034	0.222597	-1.0578168	1.3684148	0.046627089	-1.0573475	1.026672	-0.20205019	-1.0844826	1.0157907	0.28462754	-0.90274735	0.83166551	-0.21322049	-0.95754015	0.81151251	0.32963425
70	0.276	-1.2150869	0.073669405	-0.072932991	-0.86108054	0.035799929	0.090064342	-1.2463975	0.19864245	-0.098712242	-0.99705257	0.060416535	0.11231888	-1.2284799	0.20653792	-0.017942154	-0.97691986	0.084350872	0.027540587	-1.3056158	0.24298021	-0.0500856	-1.0506694	0.040025807	0.049204642	-0.93817336	0.4107658	-0.13038032	-0.92371704	0.44380797	0.15261579	-0.92976912	0.39936372	-0.0083701798	-0.95662127	0.43574257	0.027738605	-1.0369355	0.79655967	-0.13114726	-1.0176518	0.80844712	0.21330363	-0.9603411	0.84394149	-0.092756938	-0.93166295	0.85796344	0.15273007	-1.1296311	0.93382428	0.053361411	-0.98500768	1.3391856	-0.13774033	-0.97156143	1.3149152	0.22268495	-1.051925	1.3699994	0.046937837	-1.0529873	1.0289893	-0.20180687	-1.0772979	1.0170937	0.28530206	-0.89925026	0.83327632	-0.2134423	-0.9465051	0.81468654	0.32961007
71	0.28	-1.1948597	0.072464949	-0.073346716	-0.86116485	0.035822094	0.090099909	-1.2304649	0.1962013	-0.098012465	-0.9978738	0.060065939	0.11219596	-1.2124324	0.2043191	-0.017335492	-0.97702174	0.08449329	0.027620584	-1.2908261	0.23853516	-0.048984008	-1.0508	0.040048789	0.04928051	-0.92601785	0.41400107	-0.12971462	-0.92270328	0.44384888	0.15276757	-0.91805482	0.40293069	-0.0078065815	-0.95614509	0.4358893	0.027834043	-1.0298181	0.79848998	-0.13096269	-1.0125199	0.80948743	0.2135586	-0.95381525	0.8459713	-0.092018106	-0.9272122	0.85932446	0.15330017	-1.1238786	0.93525029	0.053588061	-0.97937894	1.3409964	-0.13743608	-0.96541555	1.3167783	0.22277678	-1.0460357	1.3715348	0.047241907	-1.0486219	1.0312374	-0.20156629	-1.0702504	1.0183344	0.28594581	-0.89575937	0.83482419	-0.21368742	-0.93550784	0.81788637	0.32955817
72	0.284	-1.1743384	0.07131455	-0.073835822	-0.86124067	0.035842301	0.09013654	-1.2142596	0.19359379	-0.097366295	-0.99849548	0.05983069	0.11212615	-1.1957252	0.20198041	-0.016781932	-0.97710155	0.084634769	0.027721501	-1.2757783	0.23385345	-0.047682091	-1.0509033	0.040116542	0.049339539	-0.91396079	0.41724878	-0.12899649	-0.92146983	0.44394786	0.15295151	-0.90634424	0.40661096	-0.0071289941	-0.95561895	0.43602462	0.027874638	-1.0226942	0.80045328	-0.13056274	-1.0072643	0.81049234	0.21380998	-0.94748787	0.8479463	-0.091352516	-0.9221226	0.86073075	0.15398583	-1.1181579	0.93659063	0.053827999	-0.97373588	1.3427347	-0.1371373	-0.95928965	1.3185805	0.22287213	-1.0401493	1.3730188	0.047540036	-1.0442563	1.0334116	-0.20133776	-1.0631698	1.0195497	0.28666112	-0.89227496	0.83630285	-0.21395515	-0.9245557	0.82110807	0.32947969
73	0.288	-1.1536563	0.070189663	-0.074364151	-0.86130573	0.035866202	0.090174068	-1.1977305	0.19079016	-0.096787076	-0.99866581	0.059849067	0.11217621	-1.1783837	0.1995401	-0.01625853	-0.97715647	0.084779707	0.027846288	-1.2605146	0.22900145	-0.046458806	-1.0509442	0.040240639	0.049365522	-0.90201202	0.42051374	-0.12823723	-0.92031121	0.44404436	0.15304355	-0.89456598	0.41042102	-0.0063143524	-0.95480578	0.43620074	0.027859461	-1.0155616	0.80242376	-0.13011141	-1.002013	0.81148921	0.21402635	-0.94127331	0.84988155	-0.090718121	-0.91616683	0.86222586	0.15482978	-1.1124625	0.93783174	0.054072344	-0.96806998	1.3443963	-0.13684586	-0.95317541	1.3203163	0.22297006	-1.0342685	1.3744453	0.047825728	-1.0398976	1.0355175	-0.20112725	-1.0559686	1.0207454	0.28751119	-0.88879801	0.83771993	-0.21423938	-0.91365433	0.82434283	0.32936978
74	0.292	-1.1329373	0.069045748	-0.07488439	-0.86136033	0.035895047	0.090211644	-1.1808292	0.18777868	-0.096284959	-0.99840309	0.06011307	0.11234121	-1.1608875	0.1970027	-0.015714049	-0.97719078	0.084923877	0.027990458	-1.245096	0.22402556	-0.045477603	-1.0508512	0.04044554	0.049291117	-0.89018639	0.42380086	-0.12744705	-0.91947463	0.44406907	0.15296407	-0.88274818	0.41434872	-0.00538362	-0.95402458	0.43636886	0.027713668	-1.0084622	0.80437559	-0.12979359	-0.99682873	0.81248591	0.21419674	-0.93504585	0.85178903	-0.090064864	-0.90972118	0.86374978	0.15571124	-1.1067691	0.93899366	0.05431643	-0.96238283	1.3459802	-0.13656571	-0.94707966	1.3219885	0.22307196	-1.0283946	1.3758095	0.0480936	-1.0355463	1.0375565	-0.2009331	-1.04869	1.0219021	0.28845296	-0.88533277	0.83907789	-0.21453937	-0.90281068	0.82758178	0.32922572
75	0.296	-1.1121854	0.067867488	-0.075366049	-0.86141411	0.03591801	0.090249582	-1.1636211	0.18461547	-0.095826226	-0.99791753	0.060497336	0.11255571	-1.143903	0.19433015	-0.015058445	-0.97723291	0.08504923	0.02813883	-1.2295409	0.21888811	-0.044490248	-1.0505823	0.040733573	0.049060318	-0.87849518	0.42710292	-0.12663577	-0.91886871	0.44401668	0.15278145	-0.87107638	0.41831166	-0.0044060523	-0.95360996	0.43644645	0.027422329	-1.0014467	0.80631798	-0.12967958	-0.99166576	0.81343781	0.21434539	-0.92872881	0.85366382	-0.089376682	-0.90338494	0.86518632	0.15648297	-1.1010438	0.94011604	0.054546099	-0.95668233	1.3474805	-0.13629753	-0.94100298	1.3235965	0.22317725	-1.0225261	1.3771096	0.048343044	-1.0311907	1.0395192	-0.20074574	-1.0413966	1.022999	0.28942268	-0.88187886	0.84036312	-0.21486517	-0.89202707	0.8308189	0.3290502
76	0.3	-1.0913787	0.066666119	-0.07580206	-0.86148874	0.035912954	0.090292537	-1.1463131	0.18139402	-0.095336211	-0.99748868	0.060835085	0.11273595	-1.1276591	0.19144085	-0.014214756	-0.97730971	0.085139792	0.028274323	-1.2138288	0.21351032	-0.043220993	-1.0502508	0.041042069	0.048748135	-0.86693954	0.43040058	-0.12580147	-0.91818093	0.44394356	0.15264632	-0.85973481	0.42220126	-0.0034394334	-0.95335042	0.43649013	0.027126054	-0.99452722	0.80826685	-0.12970805	-0.98644411	0.81427431	0.21449651	-0.92222551	0.85550613	-0.088644678	-0.8975044	0.86644552	0.15707529	-1.0952425	0.94122584	0.05472337	-0.95097254	1.34889	-0.13603803	-0.93493339	1.3251308	0.22328362	-1.0166589	1.3783419	0.048573877	-1.0268086	1.0413918	-0.20054362	-1.0341126	1.0240242	0.29039087	-0.87842924	0.84155995	-0.21522688	-0.88129783	0.83404764	0.32884716
77	0.304	-1.0705566	0.065467919	-0.076205867	-0.86160214	0.035864565	0.090345099	-1.1290672	0.17816226	-0.094770552	-0.99728101	0.061039682	0.11284152	-1.111751	0.18829735	-0.013226499	-0.97737574	0.085217543	0.028383813	-1.1979167	0.2078691	-0.041759755	-1.0501257	0.041271657	0.048541137	-0.85551658	0.43366898	-0.12492136	-0.91728897	0.44388326	0.15261792	-0.84874545	0.42596566	-0.0024846235	-0.95285556	0.4366492	0.026949787	-0.98768293	0.81019539	-0.1297691	-0.98114942	0.81496087	0.2146458	-0.91543715	0.85732922	-0.08785759	-0.89203611	0.8675073	0.15749757	-1.0893058	0.94231927	0.054786733	-0.94524987	1.350208	-0.1357836	-0.92886725	1.3265797	0.22338909	-1.0107895	1.3794965	0.048785205	-1.0223728	1.0431641	-0.20028691	-1.0268382	1.0249731	0.29135364	-0.87496804	0.84266707	-0.21561691	-0.87061463	0.83725989	0.32861935
